# xmcd
#
# Track frame offsets: 
#        150
#        23175
#        50700
#        67200
#        87375
#        111075
#        131250
#        145725
#        167775
#        181350
#        228975
#        249975
#        269700
#        297900
#        308550
#        316800
#        329250
#        340800
#
# Disc length: 4625 seconds
#
# Revision: 0
# Processed by: cddbd v1.5.2PL0 Copyright (c) Steve Scherf et al.
# Submitted via: ExactAudioCopy v0.99pb1
#
DISCID=09120f12
DTITLE=Владимир Коренев - А.Беляев. Человек-амфибия
DYEAR=2007
DGENRE=
TTITLE0=Морской дьявол
TTITLE1=Неудача Зуриты
TTITLE2=Доктор Сальватор
TTITLE3=Больная внучка
TTITLE4=Чудесный сад
TTITLE5=Нападение
TTITLE6=Человек-амфибия
TTITLE7=День Ихтиандра
TTITLE8=Слуга Ихтиандра
TTITLE9=В городе
TTITLE10=Неприятная встреча
TTITLE11=Новый друг
TTITLE12=Эхо морского дьявола
TTITLE13=Необычный пленник
TTITLE14=Полный ход
TTITLE15=В тюрьме
TTITLE16=Побег
TTITLE17=Послесловие
EXTD=
EXTT0=
EXTT1=
EXTT2=
EXTT3=
EXTT4=
EXTT5=
EXTT6=
EXTT7=
EXTT8=
EXTT9=
EXTT10=
EXTT11=
EXTT12=
EXTT13=
EXTT14=
EXTT15=
EXTT16=
EXTT17=
PLAYORDER=
